<svg width="256" height="256" viewBox="0 0 256 256" fill="none" xmlns="http://www.w3.org/2000/svg">
<rect width="256" height="256" rx="128" fill="white"/>
<path d="M128.15 40.143C129.281 40.0449 130.432 40.0109 131.567 40.0009C132.968 39.9883 134.568 40.2814 135.571 41.3456C136.308 42.1275 136.551 43.2546 136.49 44.3017C136.271 48.0999 132.388 48.1284 129.502 48.3114C108.68 49.6317 90.3737 56.7996 75.0996 71.2037C58.5634 86.506 48.952 107.869 48.4691 130.394C47.8883 154.036 57.4311 174.434 73.4451 191.335C73.5795 184.667 73.4784 177.981 73.472 171.309C73.4693 168.175 73.2095 164.789 73.6465 161.689C73.9196 159.753 74.5113 157.921 75.57 156.26C78.0094 152.435 81.4778 151.105 85.6933 150.177C92.6231 142.508 99.6612 147.332 103.061 145.393C103.589 145.092 103.559 144.796 103.648 144.257C103.576 144.134 103.55 143.972 103.434 143.892C102.764 143.427 98.6564 143.692 97.5692 143.555C96.5796 143.427 95.6097 143.181 94.6808 142.816C90.8372 141.283 88.7687 138.183 87.2581 134.537C84.8164 134.444 82.3061 134.115 80.3076 132.578C78.4535 131.152 77.5917 129.002 77.2867 126.74C76.7685 122.895 76.5194 114.082 79.0452 110.951C80.9894 108.54 83.8597 108.235 86.7225 107.97C86.8532 103.264 88.5659 98.7172 91.9093 95.3551C98.9928 88.2317 110.366 89.8241 119.583 89.7906L119.588 82.6943C117.542 81.8564 115.854 80.6399 114.657 78.7407C113.264 76.5317 112.834 73.5733 113.49 71.0499C114.13 68.6351 115.723 66.5837 117.903 65.3652C120.16 64.0677 122.847 63.7438 125.347 64.4673C127.741 65.143 129.753 66.7719 130.912 68.973C132.146 71.3043 132.476 74.0829 131.613 76.5939C130.555 79.67 128.35 81.3806 125.566 82.8017L125.573 89.804C134.824 89.8618 146.44 88.1336 153.81 94.7661C157.708 98.2745 159.289 102.904 159.535 108.027C161.907 108.09 164.355 108.283 166.304 109.795C168.258 111.311 168.978 113.651 169.21 116.021C169.618 120.183 170.062 128.431 167.192 131.716C165.107 134.104 162.13 134.287 159.194 134.499C158.885 135.377 158.526 136.317 158.074 137.131C155.597 141.6 151.708 143.256 146.813 143.491C145.495 143.552 143.989 143.457 142.73 143.844C142.508 144.46 142.511 144.602 142.613 145.252C144.059 146.244 149.59 145.448 151.622 145.573C155.486 145.815 158.086 147.289 160.62 150.129C160.796 150.165 160.972 150.202 161.148 150.241C165.591 151.219 168.639 152.935 171.145 156.838C171.918 158.288 172.372 159.751 172.597 161.372C173.056 164.687 172.812 168.2 172.806 171.551L172.805 188.967C174.715 190.628 176.109 192.402 176.827 194.873C177.637 197.658 177.347 201.454 175.875 204.006C175.204 205.172 174.09 206.171 172.75 206.468C171.974 206.639 171.197 206.438 170.549 205.991C166.985 203.532 171.862 200.824 170.923 197.051C170.548 195.546 169.515 194.241 168.167 193.481C166.595 192.596 164.776 192.676 163.099 193.223C156.558 195.352 162.647 202.628 161.024 205.578C160.718 206.135 160.206 206.447 159.594 206.575C158.56 206.789 157.353 206.595 156.472 206.005C154.861 204.928 154.198 202.704 153.853 200.888C153.107 196.958 154.155 193.974 156.332 190.769L156.355 168.02C156.358 164.269 156.652 160.257 156.276 156.534C156.169 155.48 156.027 154.05 155.277 153.229C154.12 151.963 152.63 151.685 150.996 151.621C146.662 151.45 142.268 151.596 137.928 151.602L113.696 151.669L100.8 151.714C98.4819 151.719 95.9966 151.554 93.7041 151.858C92.7148 151.99 91.8085 152.558 91.1091 153.249C90.2802 154.066 90.0165 154.839 89.8568 155.968C89.276 160.07 89.716 166.838 89.7167 171.218L89.724 203.878C96.4088 208.149 104.479 211.212 112.15 213.133C115.738 214.032 119.494 214.837 123.177 215.19C125.756 215.439 128.44 215.364 130.988 215.816C131.746 215.95 132.564 216.139 133.206 216.589C134.097 217.212 134.667 218.281 134.829 219.342C134.984 220.353 134.851 221.377 134.205 222.2C133.263 223.4 131.645 223.85 130.185 223.948C126.808 224.169 123.011 223.651 119.651 223.202C101.955 220.807 85.3621 213.233 71.9563 201.435C53.3593 185.506 41.9193 162.791 40.1928 138.367C38.6111 113.877 46.8301 89.7621 63.0397 71.3355C80.0266 51.9557 102.629 41.8059 128.15 40.143Z" fill="black"/>
<path d="M105.58 96.0101C106.412 95.9804 107.243 95.9583 108.076 95.9433C114.639 95.8397 121.217 95.9177 127.782 95.9166C132.819 95.9159 139.978 95.2922 144.749 96.5833C146.773 97.131 148.69 98.353 150.166 99.8339C152.659 102.336 153.343 105.234 153.376 108.643C153.418 112.952 153.301 117.265 153.337 121.577C153.366 124.979 153.772 128.871 153.199 132.226C152.981 133.499 152.51 134.779 151.564 135.691C148.969 138.196 144.473 137.578 141.155 137.557L112.67 137.644C108.435 137.653 103.41 138.1 99.2536 137.548C97.8046 137.354 96.5872 137.08 95.4334 136.138C93.7922 134.797 93.1186 133.284 92.9285 131.209C92.6229 127.871 92.911 124.33 92.9032 120.968C92.8927 116.482 92.3439 110.247 93.1325 105.932C93.5173 103.827 94.388 101.873 95.793 100.249C98.403 97.2312 101.763 96.2932 105.58 96.0101Z" fill="#F9F8F8"/>
<path d="M136.654 108.579C140.206 107.933 143.603 110.307 144.218 113.864C144.833 117.421 142.43 120.797 138.868 121.381C135.349 121.957 132.024 119.59 131.416 116.077C130.809 112.564 133.147 109.218 136.654 108.579Z" fill="black"/>
<path d="M107.475 108.795C111.016 108.167 114.392 110.538 115.002 114.083C115.612 117.627 113.223 120.991 109.675 121.583C106.154 122.17 102.82 119.802 102.215 116.284C101.609 112.766 103.96 109.419 107.475 108.795Z" fill="black"/>
<path d="M83.3198 156.972C83.3713 156.999 83.4343 157.008 83.4744 157.052C83.5688 157.15 83.661 157.257 83.7139 157.382C83.8903 157.8 83.7089 196.052 83.6455 199.993L81.7485 198.486L79.461 196.674L79.4485 173.168C79.4448 169.618 79.055 165.503 79.6202 162.008C80.011 159.59 81.4041 158.295 83.3198 156.972Z" fill="#F9F8F8"/>
<path d="M162.493 156.766C163.332 157.172 164.116 157.686 164.782 158.34C165.618 159.164 166.144 160.106 166.406 161.246C167.15 164.49 166.794 168.275 166.786 171.596L166.782 186.512C165.334 186.462 163.888 186.644 162.447 186.781C162.447 176.779 162.357 166.767 162.493 156.766Z" fill="#F9F8F8"/>
<path d="M159.464 113.897C159.937 113.919 160.414 113.94 160.884 114C161.648 114.097 162.519 114.37 162.917 115.096C163.879 116.853 163.585 125.671 162.855 127.601C162.769 127.641 162.685 127.683 162.599 127.721C161.674 128.135 160.64 128.538 159.647 128.15C159.017 126.115 159.459 116.628 159.464 113.897Z" fill="#F9F8F8"/>
<path d="M121.043 143.705C123.576 143.696 134.507 143.201 136.18 143.837C136.444 144.396 136.421 144.713 136.387 145.313C135.691 145.933 127.186 145.605 125.623 145.605C120.895 145.614 114.558 146.05 110.017 145.498C109.747 144.946 109.815 144.528 109.873 143.94C110.93 143.351 119.199 143.707 121.043 143.705Z" fill="#F9F8F8"/>
<path d="M85.5274 113.903C86.0055 113.909 86.2332 113.925 86.6369 114.189C87.0845 117.953 86.9057 124.233 86.6568 128.115C86.0728 128.433 85.2619 128.266 84.6161 128.229C84.1079 127.843 83.6596 127.525 83.4402 126.905C82.7125 124.849 82.6475 117.25 83.6334 115.287C84.06 114.437 84.6978 114.215 85.5274 113.903Z" fill="#F9F8F8"/>
<path d="M121.507 70.7189C123.065 70.1192 124.816 70.8776 125.444 72.4242C126.073 73.9708 125.347 75.7362 123.813 76.3931C122.794 76.8293 121.619 76.6815 120.741 76.0067C119.862 75.3317 119.416 74.235 119.575 73.1385C119.734 72.0419 120.473 71.1167 121.507 70.7189Z" fill="#F9F8F8"/>
<path d="M125.937 164.139C126.518 164.073 127.277 163.918 127.846 164.087C130.796 164.96 131.986 170.049 133.476 172.499C133.526 172.581 133.579 172.664 133.63 172.743C136.86 172.924 140.43 172.255 143.586 172.794C144.31 172.919 144.903 173.165 145.281 173.852C145.546 174.333 145.61 174.963 145.428 175.483C145.219 176.085 144.741 176.528 144.189 176.813C142.133 177.885 134.412 177.698 132.224 176.925C130.065 176.161 128.649 172.011 127.735 170.059C126.123 173.27 122.539 181.56 120.414 183.98C120.015 184.434 119.472 184.721 118.945 185C118.416 185.048 117.811 185.13 117.291 185C114.778 184.373 111.984 178.674 110.572 176.496C108.038 176.414 105.5 176.66 102.966 176.64C101.695 176.628 100.312 176.425 99.4261 175.426C99.0385 174.99 98.8083 174.212 98.8884 173.635C98.984 172.946 99.3683 172.42 99.945 172.052C101.787 170.88 110.152 171.012 112.438 171.484C114.75 171.963 116.737 176.101 117.958 177.94C119.672 174.653 123.104 165.85 125.937 164.139Z" fill="black"/>
<path d="M142.919 216.014C144.312 215.528 145.858 215.831 146.965 216.808C148.072 217.782 148.567 219.278 148.262 220.72C147.957 222.164 146.899 223.329 145.492 223.774C143.361 224.445 141.086 223.281 140.383 221.16C139.68 219.041 140.809 216.748 142.919 216.014Z" fill="black"/>
<path d="M157.876 213.961C159.158 213.509 160.584 213.781 161.61 214.67C162.636 215.562 163.104 216.935 162.836 218.267C162.567 219.6 161.604 220.685 160.312 221.11C158.346 221.758 156.225 220.699 155.558 218.74C154.89 216.78 155.924 214.65 157.876 213.961Z" fill="black"/>
<path d="M142.433 41.2727C144.323 40.6399 146.371 41.65 147.019 43.5355C147.667 45.4211 146.674 47.4766 144.794 48.1402C142.891 48.8115 140.807 47.8042 140.151 45.8967C139.495 43.9893 140.52 41.9127 142.433 41.2727Z" fill="black"/>
<path d="M172.244 209.385C173.817 208.871 175.509 209.72 176.039 211.287C176.57 212.854 175.741 214.556 174.181 215.106C173.155 215.468 172.014 215.249 171.194 214.533C170.373 213.819 170.001 212.72 170.218 211.654C170.435 210.587 171.209 209.72 172.244 209.385Z" fill="black"/>
<path d="M155.487 44.2399C156.917 43.7983 158.442 44.5652 158.94 45.9772C159.438 47.3894 158.733 48.9431 157.341 49.4972C156.391 49.8756 155.309 49.7034 154.523 49.0483C153.737 48.3934 153.373 47.3607 153.574 46.3575C153.775 45.3543 154.509 44.5417 155.487 44.2399Z" fill="black"/>
<path d="M184.488 203.256C185.742 202.79 187.136 203.422 187.614 204.67C188.092 205.918 187.477 207.318 186.234 207.811C185.417 208.135 184.491 207.993 183.807 207.444C183.123 206.894 182.787 206.018 182.928 205.151C183.069 204.284 183.665 203.561 184.488 203.256Z" fill="black"/>
<path d="M195.93 194.104C196.728 193.889 197.578 194.133 198.14 194.738C198.701 195.345 198.88 196.211 198.605 196.989C198.329 197.769 197.645 198.331 196.827 198.449C195.664 198.616 194.571 197.849 194.334 196.697C194.096 195.548 194.796 194.412 195.93 194.104Z" fill="black"/>
<path d="M167.65 49.5191C168.299 49.195 169.072 49.2458 169.672 49.6521C170.273 50.0586 170.607 50.7571 170.547 51.4797C170.487 52.2022 170.043 52.8363 169.384 53.1383C168.388 53.5948 167.21 53.1687 166.737 52.1809C166.264 51.1932 166.671 50.0086 167.65 49.5191Z" fill="black"/>
<path d="M179.94 55.4129C180.925 55.261 181.854 55.9184 182.038 56.8984C182.223 57.8786 181.597 58.8284 180.623 59.0449C179.964 59.1918 179.278 58.9676 178.832 58.4603C178.387 57.9529 178.253 57.2433 178.484 56.6087C178.714 55.9743 179.273 55.5158 179.94 55.4129Z" fill="black"/>
</svg>
